<svg id="Group_2639" data-name="Group 2639" xmlns="http://www.w3.org/2000/svg" xmlns:xlink="http://www.w3.org/1999/xlink" width="181.006" height="49" viewBox="0 0 181.006 49">
  <defs>
    <clipPath id="clip-path">
      <rect id="Rectangle_1769" data-name="Rectangle 1769" width="181.006" height="49" transform="translate(0 0)"/>
    </clipPath>
  </defs>
  <g id="Group_2634" data-name="Group 2634" transform="translate(0 0)" clip-path="url(#clip-path)">
    <path id="Path_1262" data-name="Path 1262" d="M13.945,11.219a8.636,8.636,0,0,1,4.243,1.6,7.866,7.866,0,0,1,2.439,2.971,7.454,7.454,0,0,1,.656,3.628,7.291,7.291,0,0,1-1.148,3.526,8.05,8.05,0,0,1-2.93,2.663,9.593,9.593,0,0,1-4.738,1.066H.224A7.5,7.5,0,0,0,1,23.271V4.087A7.765,7.765,0,0,0,.224.643H10.781a12.822,12.822,0,0,1,3.739.472,6.989,6.989,0,0,1,2.445,1.251A4.715,4.715,0,0,1,18.3,4.108a4.932,4.932,0,0,1-.678,5.063,6.24,6.24,0,0,1-3.677,2.049M3.913,11.1h6.149a7.187,7.187,0,0,0,2.665-.43,4.583,4.583,0,0,0,1.7-1.128,4.049,4.049,0,0,0,.9-1.6A6.482,6.482,0,0,0,15.6,6.1a6.353,6.353,0,0,0-.267-1.8,4.069,4.069,0,0,0-.9-1.6,4.569,4.569,0,0,0-1.7-1.127,7.156,7.156,0,0,0-2.665-.432H3.913ZM11.7,26.223a5.8,5.8,0,0,0,3.607-1.087,6.771,6.771,0,0,0,2.152-2.725,9.023,9.023,0,0,0,0-7.051,6.794,6.794,0,0,0-2.152-2.726A5.807,5.807,0,0,0,11.7,11.548H3.913V26.223Z" transform="translate(-0.117 -0.336)" fill="#650934"/>
    <path id="Path_1263" data-name="Path 1263" d="M302.982.643a12.038,12.038,0,0,1,5.37,1.128,11.644,11.644,0,0,1,3.833,2.95A12.565,12.565,0,0,1,314.5,8.883a15.038,15.038,0,0,1,0,9.551,12.539,12.539,0,0,1-2.316,4.161,11.667,11.667,0,0,1-3.833,2.952,12.058,12.058,0,0,1-5.37,1.127H292.406a7.5,7.5,0,0,0,.778-3.4V4.087a7.765,7.765,0,0,0-.778-3.444Zm-.738,25.58a8.4,8.4,0,0,0,4.345-1.087,9.929,9.929,0,0,0,3.094-2.849,12.621,12.621,0,0,0,1.866-4.017,17.466,17.466,0,0,0,0-9.183,12.617,12.617,0,0,0-1.866-4.017,9.946,9.946,0,0,0-3.094-2.849,8.417,8.417,0,0,0-4.345-1.087H296.1V26.223Z" transform="translate(-152.946 -0.336)" fill="#650934"/>
    <path id="Path_1264" data-name="Path 1264" d="M151.894,26.644a12.673,12.673,0,0,1-5.575-1.148,11.836,11.836,0,0,1-3.956-3.012,12.242,12.242,0,0,1-2.336-4.263,15.24,15.24,0,0,1,.184-9.8,12.506,12.506,0,0,1,6.7-7.275A13.688,13.688,0,0,1,152.714,0q2.583,0,4.181.124t2.583.246q.984.122,1.537.246a5.308,5.308,0,0,0,1.137.122l-.583,3.731a2.645,2.645,0,0,0-1.066-2.05A8.469,8.469,0,0,0,157.53,1,21.439,21.439,0,0,0,151.566.37a6.946,6.946,0,0,0-3.874,1.106,9.3,9.3,0,0,0-2.828,2.911,14.523,14.523,0,0,0-1.722,4.12,17.73,17.73,0,0,0-.553,4.734,18.361,18.361,0,0,0,.7,4.736,12.65,12.65,0,0,0,1.987,4.118,10.247,10.247,0,0,0,3.341,2.911,9.7,9.7,0,0,0,4.756,1.107,13.611,13.611,0,0,0,3.914-.471,6.7,6.7,0,0,0,2.439-1.251,4.048,4.048,0,0,0,1.23-1.722,5.713,5.713,0,0,0,.328-1.885V12.461a3.472,3.472,0,0,0-.553-2.192,2.118,2.118,0,0,0-1.456-.779,5.127,5.127,0,0,0-2.049.246,19.845,19.845,0,0,0-2.337.881q-1.189.533-2.316,1.127t-1.947.963l-.779-2.5a9.6,9.6,0,0,0,1.722-.164q.9-.164,2.049-.37t2.582-.368a29.488,29.488,0,0,1,3.321-.165,4.5,4.5,0,0,1,2.451.6A4.413,4.413,0,0,1,163.4,11.15a4.743,4.743,0,0,1,.644,1.68,8.941,8.941,0,0,1,.146,1.435v9.017a11.387,11.387,0,0,1-2.829,1.681,20.367,20.367,0,0,1-3.792,1.17,26.813,26.813,0,0,1-5.678.511" transform="translate(-72.866 0)" fill="#650934"/>
    <path id="Path_1265" data-name="Path 1265" d="M245.365.644l15.865,21.809V6.465A19.26,19.26,0,0,0,261,3.534a17.208,17.208,0,0,0-.717-2.89h2.622a16.844,16.844,0,0,0-.717,2.89,19.261,19.261,0,0,0-.226,2.931V26.675h-1.025L244.5,4.005V20.894a18.146,18.146,0,0,0,.942,5.78h-2.582a18.186,18.186,0,0,0,.942-5.78V5.072a10.284,10.284,0,0,0-.984-4.428Z" transform="translate(-127.011 -0.337)" fill="#650934"/>
    <path id="Path_1266" data-name="Path 1266" d="M97.293,3.76A7.766,7.766,0,0,0,96.514.316h9.8a11.307,11.307,0,0,1,4.713.882A7.72,7.72,0,0,1,114,3.431a5.7,5.7,0,0,1,.676,6.026,6.552,6.552,0,0,1-2.317,2.584,9.329,9.329,0,0,1-4.079,1.435q.778,1.271,1.5,2.725t1.375,2.89q.655,1.436,1.29,2.727a16.063,16.063,0,0,0,1.292,2.214,5.013,5.013,0,0,0,1.331,1.352,1.49,1.49,0,0,0,1.414.143l.207.37a5.174,5.174,0,0,1-3.117.738,3.012,3.012,0,0,1-2.337-1.476,23.942,23.942,0,0,1-1.435-2.727q-.7-1.535-1.414-3.095t-1.5-3.053a16.855,16.855,0,0,0-1.681-2.644h-5v9.428a7.933,7.933,0,0,0,.7,3.2l.041.083H96.514a7.591,7.591,0,0,0,.779-3.444Zm2.911,9.387h5.37a6.771,6.771,0,0,0,3.649-.922,6.02,6.02,0,0,0,2.192-2.276,6.243,6.243,0,0,0,.717-2.971,6.249,6.249,0,0,0-.717-2.972,6.02,6.02,0,0,0-2.192-2.276,6.767,6.767,0,0,0-3.649-.922H100.2Z" transform="translate(-50.482 -0.165)" fill="#650934"/>
    <path id="Path_1267" data-name="Path 1267" d="M199,3.657V17.185a9.659,9.659,0,0,0,1.127,4.9,7.831,7.831,0,0,0,2.809,2.931,7.257,7.257,0,0,0,3.668,1,7.6,7.6,0,0,0,3.669-.86,7.356,7.356,0,0,0,2.808-2.665,8.087,8.087,0,0,0,1.128-4.407V6.076a18.8,18.8,0,0,0-.942-5.821h2.623a17.61,17.61,0,0,0-.984,5.821V18.087a8.5,8.5,0,0,1-.82,3.853,8.086,8.086,0,0,1-2.131,2.706,8.409,8.409,0,0,1-3.012,1.557,11.431,11.431,0,0,1-3.464.451,11.006,11.006,0,0,1-3.444-.635,9.29,9.29,0,0,1-3.012-1.742,8.556,8.556,0,0,1-2.131-2.807,8.831,8.831,0,0,1-.8-3.874V3.7a7.766,7.766,0,0,0-.779-3.444h4.469L199.741.3A7.937,7.937,0,0,0,199,3.657" transform="translate(-102.161 -0.133)" fill="#650934"/>
    <path id="Path_1268" data-name="Path 1268" d="M53.809,3.657V17.185a9.659,9.659,0,0,0,1.127,4.9,7.831,7.831,0,0,0,2.809,2.931,7.257,7.257,0,0,0,3.668,1,7.6,7.6,0,0,0,3.669-.86,7.355,7.355,0,0,0,2.808-2.665,8.087,8.087,0,0,0,1.128-4.407V6.076A18.8,18.8,0,0,0,68.074.255H70.7a17.61,17.61,0,0,0-.984,5.821V18.087a8.5,8.5,0,0,1-.82,3.853,8.092,8.092,0,0,1-2.131,2.706A8.41,8.41,0,0,1,63.75,26.2a11.431,11.431,0,0,1-3.464.451,11.006,11.006,0,0,1-3.444-.635,9.29,9.29,0,0,1-3.012-1.742A8.556,8.556,0,0,1,51.7,21.469a8.831,8.831,0,0,1-.8-3.874V3.7A7.766,7.766,0,0,0,50.119.255h4.469L54.546.3a7.937,7.937,0,0,0-.738,3.361" transform="translate(-26.215 -0.133)" fill="#650934"/>
    <path id="Path_1269" data-name="Path 1269" d="M355.127.644h2.584a27.557,27.557,0,0,0-1.825,2.378,23.918,23.918,0,0,0-1.536,2.584l-4.92,9.509v8.157a7.488,7.488,0,0,0,.779,3.4h-4.428a7.924,7.924,0,0,0,.738-3.361V14.992L340.371,3.924a12.311,12.311,0,0,0-2.543-3.28H342.5a7.421,7.421,0,0,0,.9,3.566l5.616,10.249,4.8-9.265a11.944,11.944,0,0,0,1.311-4.55" transform="translate(-176.704 -0.337)" fill="#650934"/>
    <path id="Path_1270" data-name="Path 1270" d="M51.22,79.067a2.793,2.793,0,0,1,1.839-2.643,7.956,7.956,0,0,1,1.458-.453c.665-.154,1.191-.28,1.562-.387a3.15,3.15,0,0,0,.945-.448,1.067,1.067,0,0,0,.248-.358,1.28,1.28,0,0,0,.126-.54,1.029,1.029,0,0,0-.647-.99,3,3,0,0,0-1.349-.325,6.2,6.2,0,0,0-2.821.85l1.375-2.186a1.414,1.414,0,0,0,.318-.028c.12-.012.259-.033.383-.046s.248-.035.337-.035a2.976,2.976,0,0,1,.361-.012,4.631,4.631,0,0,1,2.846.818,2.93,2.93,0,0,1,1.133,2.529V78.6a2.293,2.293,0,0,0,.358,1.473,1.881,1.881,0,0,0,1.393.531L60.137,82.1a3.8,3.8,0,0,1-2.073-.7,2.007,2.007,0,0,1-.652-1.652V76.327a5.964,5.964,0,0,1-1.81.665,6.624,6.624,0,0,0-1.783.636,1.315,1.315,0,0,0-.538,1.222,1.541,1.541,0,0,0,.6,1.288,2.657,2.657,0,0,0,1.6.5,7.629,7.629,0,0,0,1.58-.282l-1.224,1.612a7.572,7.572,0,0,1-1.041.094,3.77,3.77,0,0,1-2.6-.884,2.757,2.757,0,0,1-.975-2.109M46.264,80V73.742a4.138,4.138,0,0,0-.14-1.254,1.346,1.346,0,0,0-.637-.683v-.079h.544c.245-.011.539-.031.882-.031a5.181,5.181,0,0,0,.788-.046.657.657,0,0,0,.389-.185h.094V73.1a2.4,2.4,0,0,1,1.251-1.281,5.282,5.282,0,0,1,1.935-.311v2.042a1.16,1.16,0,0,0-1.035-.387,4.62,4.62,0,0,0-.852.126q-1.3.46-1.3,2.785v3.889a2.765,2.765,0,0,0,.152,1.051,1.451,1.451,0,0,0,.652.7V81.8h-3.5v-.082a1.236,1.236,0,0,0,.665-.7A3.643,3.643,0,0,0,46.264,80m-5.873-1.443v-5.39H38.98v-.809c1.641-.229,2.482-1.528,2.482-3.867h.8v3.235h1.553a3.161,3.161,0,0,0,1.222-.14h.029V73.6h-.029a1.444,1.444,0,0,0-1.192-.433H42.262v4.51c0,1.376.284,2.273.852,2.677a2.254,2.254,0,0,0,1.027.282,3.075,3.075,0,0,0,.925-.22l-1.1,1.55a5.879,5.879,0,0,1-.852.043,2.283,2.283,0,0,1-2.059-1,4.392,4.392,0,0,1-.665-2.446M29.317,79.829V73.555a1.778,1.778,0,0,0-.8-1.749v-.079a12.681,12.681,0,0,1,1.268.044,3.447,3.447,0,0,0,1.349-.306h.043v1.7a3.319,3.319,0,0,1,1.116-1.176,2.961,2.961,0,0,1,1.826-.527q3.7.048,3.7,3.762V79.5a1.419,1.419,0,0,1-.043.373c.06.955.34,1.576.85,1.84V81.8h-3.45v-.082a1.542,1.542,0,0,0,.646-.758,4.722,4.722,0,0,0,.127-1.257V76.327q0-3.436-2.524-3.439a1.954,1.954,0,0,0-1.786.727,3.765,3.765,0,0,0-.463,2.048V79.92a3.646,3.646,0,0,0,.124,1.1,1.637,1.637,0,0,0,.684.7V81.8H28.543v-.082a1.506,1.506,0,0,0,.669-.744,4.3,4.3,0,0,0,.106-1.143m-10.44-.762a2.8,2.8,0,0,1,1.849-2.643,7.85,7.85,0,0,1,1.455-.453c.668-.154,1.189-.28,1.563-.387a3.229,3.229,0,0,0,.946-.448,1.172,1.172,0,0,0,.248-.358,1.319,1.319,0,0,0,.121-.54,1.025,1.025,0,0,0-.651-.99,2.968,2.968,0,0,0-1.345-.325,6.211,6.211,0,0,0-2.82.85l1.381-2.186a1.361,1.361,0,0,0,.311-.028c.12-.012.262-.033.382-.046.139-.015.248-.035.341-.035a2.862,2.862,0,0,1,.357-.012,4.631,4.631,0,0,1,2.849.818,2.886,2.886,0,0,1,1.127,2.529V78.6a2.439,2.439,0,0,0,.356,1.473,1.912,1.912,0,0,0,1.4.531L27.8,82.1a3.816,3.816,0,0,1-2.074-.7,2.016,2.016,0,0,1-.649-1.652V76.327a5.953,5.953,0,0,1-1.813.665,6.57,6.57,0,0,0-1.781.636,1.31,1.31,0,0,0-.541,1.222,1.534,1.534,0,0,0,.6,1.288,2.647,2.647,0,0,0,1.591.5,7.587,7.587,0,0,0,1.581-.282L23.5,81.966a7.6,7.6,0,0,1-1.041.094,3.71,3.71,0,0,1-2.581-.884,2.723,2.723,0,0,1-1-2.109M.913,79.642V72.705A1.879,1.879,0,0,0,0,70.846v-.093a12.155,12.155,0,0,1,1.4.047,3.364,3.364,0,0,0,1.518-.344h.046V72.33a3.469,3.469,0,0,1,3.3-1.874,4.01,4.01,0,0,1,3.514,2.061,4.137,4.137,0,0,1,3.454-2.061A4.035,4.035,0,0,1,16.466,71.5c.7.743,1.037,2.041,1.037,3.874v4.658a1.544,1.544,0,0,0,1.018,1.67v.1h-3.96v-.1a1.409,1.409,0,0,0,.725-.814,3.72,3.72,0,0,0,.157-1.2V76c0-2.665-.865-3.985-2.617-3.985a2.373,2.373,0,0,0-1.967.888,4.768,4.768,0,0,0-.622,2.8v3.576a1.388,1.388,0,0,1-.047.4c.066,1.055.372,1.718.93,2.014v.1H7.293v-.1a2.047,2.047,0,0,0,.883-1.823V75.8a5.312,5.312,0,0,0-.6-2.621,2.213,2.213,0,0,0-1.966-1.165,2.17,2.17,0,0,0-1.952.794,3.5,3.5,0,0,0-.7,2.244v4.679A2.042,2.042,0,0,0,3.793,81.7v.1H0v-.1a1.552,1.552,0,0,0,.913-1.438Zm61.3-9.5a1.451,1.451,0,1,0,.425,1.027,1.446,1.446,0,0,0-.425-1.027m-1.026-.539a1.566,1.566,0,1,1-1.107.459,1.558,1.558,0,0,1,1.107-.459M60.634,71h.56a.831.831,0,0,0,.279-.037.3.3,0,0,0,.152-.117.327.327,0,0,0,.052-.177.3.3,0,0,0-.1-.23.473.473,0,0,0-.32-.09h-.623Zm-.261,1.1V70.136h.873a1.147,1.147,0,0,1,.4.053.431.431,0,0,1,.22.187.567.567,0,0,1,.082.3.5.5,0,0,1-.136.354.684.684,0,0,1-.419.184.693.693,0,0,1,.158.1,1.343,1.343,0,0,1,.216.264l.341.536H61.78l-.261-.412a3.194,3.194,0,0,0-.187-.27.611.611,0,0,0-.131-.133.417.417,0,0,0-.12-.052.741.741,0,0,0-.145-.009h-.3v.875Z" transform="translate(0 -35.825)" fill-rule="evenodd"/>
    <text id="luxury_line" data-name="luxury line" transform="translate(70.42 45.525)" font-size="12" font-family="Aller"><tspan x="0" y="0" letter-spacing="0.34em">l</tspan><tspan y="0" letter-spacing="0.339em">u</tspan><tspan y="0" letter-spacing="0.34em">x</tspan><tspan y="0" letter-spacing="0.339em">u</tspan><tspan y="0" letter-spacing="0.365em">r</tspan><tspan y="0" letter-spacing="0.339em">y</tspan><tspan y="0" xml:space="preserve" letter-spacing="0.34em"> l</tspan><tspan y="0" letter-spacing="0.339em">i</tspan><tspan y="0" letter-spacing="0.34em">n</tspan><tspan y="0">e</tspan></text>
  </g>
</svg>
