<svg xmlns="http://www.w3.org/2000/svg" width="101.586" height="56.194" viewBox="0 0 101.586 56.194">
  <g id="b" transform="translate(0 0.003)">
    <g id="c" transform="translate(0 -0.003)">
      <path id="Path_28" data-name="Path 28" d="M37.64,32C27.7,29.48,25.484,16.344,13.462,19.563c10.254,1.216,11.853,13.518,21.994,13.53a.549.549,0,0,1-.079.034,18.955,18.955,0,0,0,4.424-.54,12.123,12.123,0,0,0,4.018.54h.034a15.028,15.028,0,0,0,2.353-.248c.619-.09,1.227-.214,1.8-.349a15.807,15.807,0,0,0,4.356.574l-.056.023C76.237,32.609,71.183,6.855,89.384.012A22.586,22.586,0,0,0,77.8,2.736c-19.6.023-18.28,17.649-28.388,26.834-.675-.507-1.317-1.047-1.936-1.61,6.315-6.832,8.206-18.482,19.27-22.49-14.757,0-16.659,11.008-22.174,19.54-4.716-5.088-9.095-10.423-18.854-7.9,8.048.855,11.1,7.249,15.916,11.695-.27.281-.54.552-.822.822C34,24.809,30.493,15.68,19.5,18.168,28.6,19.248,31.3,28.377,37.955,31.821c-.1.056-.2.124-.3.18m60.062,8.217v-3.14h1.4a2.176,2.176,0,0,1,.653.09.686.686,0,0,1,.349.293.886.886,0,0,1,.135.473.791.791,0,0,1-.225.563,1.151,1.151,0,0,1-.675.293,1.225,1.225,0,0,1,.259.158,2.446,2.446,0,0,1,.349.416l.552.855h-.529l-.416-.653q-.186-.287-.3-.439a1.281,1.281,0,0,0-.214-.214,1,1,0,0,0-.191-.09c-.079,0-.158-.011-.236-.011H98.13v1.4h-.405Zm.428-1.756h.9a1.5,1.5,0,0,0,.45-.056.467.467,0,0,0,.248-.191.483.483,0,0,0,.079-.281.5.5,0,0,0-.169-.371.776.776,0,0,0-.518-.146H98.119v1.036Zm.912-2.229a2.519,2.519,0,0,1,1.79.732,2.473,2.473,0,0,1,.034,3.5l-.034.034a2.548,2.548,0,0,1-3.579,0,2.473,2.473,0,0,1-.034-3.5l.034-.034a2.539,2.539,0,0,1,1.79-.732m1.655.867a2.378,2.378,0,0,0-3.321,0,2.293,2.293,0,0,0-.034,3.242l.034.034a2.378,2.378,0,0,0,3.321,0,2.293,2.293,0,0,0,.034-3.242l-.034-.034M1.5,52.24V41.164A3.009,3.009,0,0,0,.023,38.192v-.146a16.893,16.893,0,0,1,2.262.079,5.624,5.624,0,0,0,2.454-.552h.079v2.994a5.657,5.657,0,0,1,5.347-2.994,6.507,6.507,0,0,1,5.684,3.287,6.7,6.7,0,0,1,5.594-3.287c2.386-.068,4.142.473,5.245,1.655,1.126,1.182,1.677,3.264,1.677,6.18v7.44a2.468,2.468,0,0,0,1.643,2.668v.158H23.6v-.158a2.268,2.268,0,0,0,1.171-1.306,5.782,5.782,0,0,0,.259-1.914V46.42c0-4.255-1.4-6.36-4.232-6.36a3.864,3.864,0,0,0-3.185,1.418,7.492,7.492,0,0,0-1,4.469v5.707a2.5,2.5,0,0,1-.079.642c.1,1.688.608,2.746,1.508,3.219v.158H11.853v-.158a3.252,3.252,0,0,0,1.43-2.915V46.105a8.488,8.488,0,0,0-.968-4.187,3.594,3.594,0,0,0-3.185-1.857,3.537,3.537,0,0,0-3.185,1.272,5.544,5.544,0,0,0-1.126,3.579v7.474c0,1.6.45,2.645,1.351,3.129v.158H0v-.158a2.476,2.476,0,0,0,1.475-2.3l.023-1Zm29.074-.912q-.068-2.735,2.994-4.221a13.209,13.209,0,0,1,2.353-.72c1.081-.248,1.925-.45,2.533-.619a5.29,5.29,0,0,0,1.531-.72,2.044,2.044,0,0,0,.405-.574,2.073,2.073,0,0,0,.191-.867,1.663,1.663,0,0,0-1.047-1.587,4.86,4.86,0,0,0-2.172-.518A10,10,0,0,0,32.8,42.863l2.24-3.489a1.93,1.93,0,0,0,.507-.045c.191-.023.428-.056.619-.079s.371-.045.552-.056a4.9,4.9,0,0,1,.574-.023,7.543,7.543,0,0,1,4.615,1.306,4.592,4.592,0,0,1,1.823,4.041v6.056a3.846,3.846,0,0,0,.574,2.353,3.12,3.12,0,0,0,2.262.844l-1.531,2.386a6.16,6.16,0,0,1-3.354-1.114,3.194,3.194,0,0,1-1.047-2.634v-5.47a10.046,10.046,0,0,1-2.927,1.069,10.835,10.835,0,0,0-2.882,1.013,2.082,2.082,0,0,0-.878,1.947,2.457,2.457,0,0,0,.968,2.06,4.395,4.395,0,0,0,2.578.8,12.28,12.28,0,0,0,2.555-.45l-1.981,2.578a12.211,12.211,0,0,1-1.688.146A6.055,6.055,0,0,1,32.2,54.693a4.308,4.308,0,0,1-1.61-3.366m16.9,1.216V42.526a2.818,2.818,0,0,0-1.294-2.791V39.61c1,0,1.677.034,2.049.068a5.609,5.609,0,0,0,2.184-.484h.068v2.735a5.433,5.433,0,0,1,1.8-1.88,4.832,4.832,0,0,1,2.949-.844q5.994.068,5.988,6.011v6.821a2.62,2.62,0,0,1-.068.6c.1,1.52.552,2.521,1.373,2.938v.135H56.955v-.135A2.457,2.457,0,0,0,58,54.356a7.484,7.484,0,0,0,.2-2V46.96q0-5.487-4.086-5.482a3.172,3.172,0,0,0-2.893,1.159,5.992,5.992,0,0,0-.743,3.264v6.8a5.772,5.772,0,0,0,.2,1.756,2.634,2.634,0,0,0,1.1,1.114v.135H46.195v-.135a2.4,2.4,0,0,0,1.081-1.182,7.107,7.107,0,0,0,.169-1.823m17.92-2.026v-8.6H63.079V40.646c2.656-.371,4.018-2.443,4.018-6.18h1.294v5.167H70.9a5.149,5.149,0,0,0,1.981-.225h.045v3.219h-.045a2.338,2.338,0,0,0-1.936-.687H68.392v7.2c0,2.195.462,3.624,1.384,4.277a3.573,3.573,0,0,0,1.655.45,4.842,4.842,0,0,0,1.5-.349L71.149,56a9.43,9.43,0,0,1-1.373.068,3.72,3.72,0,0,1-3.332-1.61,6.947,6.947,0,0,1-1.081-3.906m9.5,2.307v-10a6.342,6.342,0,0,0-.225-2,2.153,2.153,0,0,0-1.024-1.092v-.124h.878c.394-.023.878-.045,1.43-.045a7.961,7.961,0,0,0,1.272-.079,1.029,1.029,0,0,0,.63-.293h.158v2.611a3.877,3.877,0,0,1,2.026-2.049,8.482,8.482,0,0,1,3.129-.5v3.264a1.882,1.882,0,0,0-1.677-.619,7.1,7.1,0,0,0-1.373.2c-1.4.5-2.1,1.97-2.094,4.446V52.8a4.251,4.251,0,0,0,.248,1.677A2.311,2.311,0,0,0,79.3,55.594v.135H73.637v-.135a2.018,2.018,0,0,0,1.081-1.114,6.1,6.1,0,0,0,.18-1.632m8.026-1.486c-.056-1.823.945-3.242,2.972-4.221a13.324,13.324,0,0,1,2.364-.72c1.081-.248,1.925-.45,2.533-.619a5.29,5.29,0,0,0,1.531-.72,1.894,1.894,0,0,0,.405-.574,1.923,1.923,0,0,0,.2-.867,1.647,1.647,0,0,0-1.047-1.587,4.907,4.907,0,0,0-2.184-.518A10,10,0,0,0,85.14,42.9l2.229-3.489a2.016,2.016,0,0,0,.518-.045c.191-.023.416-.056.619-.079.18-.023.36-.045.552-.056a5.088,5.088,0,0,1,.585-.023,7.531,7.531,0,0,1,4.6,1.306,4.656,4.656,0,0,1,1.835,4.041v6.056a3.622,3.622,0,0,0,.585,2.353,3.094,3.094,0,0,0,2.251.844L97.387,56.19a6.191,6.191,0,0,1-3.354-1.114,3.2,3.2,0,0,1-1.058-2.634v-5.47a10.046,10.046,0,0,1-2.927,1.069,11.052,11.052,0,0,0-2.893,1.013A2.105,2.105,0,0,0,86.277,51a2.457,2.457,0,0,0,.968,2.06,4.429,4.429,0,0,0,2.589.8,12.28,12.28,0,0,0,2.555-.45l-1.981,2.578a12.211,12.211,0,0,1-1.688.146,6.167,6.167,0,0,1-4.2-1.407,4.363,4.363,0,0,1-1.576-3.366M54.49,32.125a14.114,14.114,0,0,1-2.555-.991C63.664,25.169,63.45,7.947,77.79,2.792,66.7,9.253,66.782,25.36,54.49,32.125m-8.4-.056c.079-.045.146-.09.214-.124A15.385,15.385,0,0,1,44.191,30.8c-.214.135-.439.27-.675.394a13.813,13.813,0,0,0,2.566.878" transform="translate(0 0.003)" fill="#fff"/>
    </g>
  </g>
</svg>
